<svg xmlns="http://www.w3.org/2000/svg" xmlns:xlink="http://www.w3.org/1999/xlink" viewBox="0 0 672 144" version="1.2">
    <defs>
        <linearGradient id="a">
            <stop offset="0" stop-color="#e7501e"/>
            <stop offset="1" stop-color="#f19102"/>
        </linearGradient>
        <linearGradient id="b">
            <stop offset="0" stop-color="#e7501e"/>
            <stop offset="1" stop-color="#ffa71b"/>
        </linearGradient>
        <linearGradient id="k" x1="80.56" x2="81.737" y1="-7.639" y2="-60.482"
                        gradientTransform="rotate(-25 379.86 73.408) scale(1.34422)" gradientUnits="userSpaceOnUse"
                        xlink:href="#a"/>
        <linearGradient id="j" x1="45.361" x2="81.201" y1="-46.709" y2="-46.709"
                        gradientTransform="rotate(-25 379.863 73.408) scale(1.34422)" gradientUnits="userSpaceOnUse"
                        xlink:href="#b"/>
        <linearGradient id="l" x1="80.56" x2="81.737" y1="-7.639" y2="-60.482"
                        gradientTransform="rotate(155 64.657 2.04) scale(1.34422)" gradientUnits="userSpaceOnUse"
                        xlink:href="#a"/>
        <linearGradient id="m" x1="45.361" x2="81.201" y1="-46.709" y2="-46.709" xlink:href="#b"
                        gradientUnits="userSpaceOnUse" gradientTransform="rotate(-25 379.863 73.408) scale(1.34422)"/>
    </defs>
    <path fill="url(#m)"
          d="M25.705 68.464L84.78 40.917l.88 1.888-59.075 27.547z M27.747 72.843L86.82 45.297l.882 1.888-59.074 27.547z M29.79 77.224l59.074-27.547.88 1.89L30.67 79.11z M31.833 81.605l59.074-27.547.88 1.89-59.074 27.545z M33.876 85.986L92.95 58.44l.88 1.888-59.074 27.546z M35.918 90.367L94.993 62.82l.88 1.888L36.8 92.255z M37.96 94.748L97.036 67.2l.88 1.89-59.073 27.546z"/>
    <path fill="url(#j)" d="M40.004 99.127L99.078 71.58l.88 1.89-59.074 27.546z"/>
    <path fill="url(#k)" fill-rule="evenodd"
          d="M53.413 26.39c23.7-5.562 52.805-8.148 69.84 16.623 1.12 1.632 2.016 3.45 2.586 5.348 9.8 32.73-4.66 79.35-61.17 95.62 47.38-16.63 55.32-82.64-11.26-117.58z"/>
    <path fill="url(#l)" fill-rule="evenodd"
          d="M75.27 117.588c-23.7 5.562-52.806 8.148-69.84-16.623-1.122-1.632-2.018-3.45-2.588-5.347C-6.97 62.892 7.492 16.268 64.004.004 16.622 16.634 8.678 82.642 75.27 117.584z"/>
    <path fill="#f8b333" fill-rule="evenodd"
          d="M128.68 68.85c-.3 2.05-.696 3.93-1.19 5.986-.782 3.248-1.82 6.486-3.158 9.653-.67 1.58-1.412 3.14-2.237 4.69-.823 1.54-1.728 3.05-2.717 4.54-.99 1.48-2.065 2.94-3.23 4.35-1.166 1.42-2.42 2.79-3.775 4.12-1.35 1.33-2.8 2.61-4.35 3.84-1.55 1.23-3.2 2.41-4.96 3.53-1.58 1.01-3.132 1.99-4.89 2.9-5.523 14.17-17.26 25.81-33.497 31.52 45.81-13.02 64.122-46.38 64.003-75.13z M.004 75.128c.3-2.05.696-3.93 1.19-5.985.78-3.248 1.82-6.486 3.158-9.653.67-1.584 1.412-3.15 2.236-4.69.817-1.542 1.725-3.06 2.713-4.544.99-1.485 2.06-2.938 3.23-4.352 1.16-1.422 2.42-2.794 3.78-4.126 1.35-1.33 2.8-2.612 4.35-3.843 1.55-1.23 3.2-2.41 4.96-3.53 1.59-1.01 3.13-1.997 4.89-2.905C36.03 17.34 47.77 5.7 64.01 0 18.193 13.032-.117 46.385 0 75.13z"/>
    <path fill="#fff"
          d="M619.14 105.522c-4.64-.76-9.89-2.88-14.128-5.71-2.456-1.636-7.594-6.783-9.204-9.218-2.612-3.95-4.53-8.58-5.36-12.94-.578-3.045-.57-9.57.015-12.645 2.277-11.95 11.524-22.49 23.13-26.35 4.09-1.37 6.303-1.7 11.174-1.7 5.205 0 8.198.53 12.606 2.24 5.612 2.18 11.483 6.55 15.078 11.22l.71.91V36.82h7.07v69.083h-7.06l-.01-7.262v-7.26l-.56.79c-1.16 1.61-4.85 5.21-6.96 6.8-3.79 2.86-8.59 5.08-13.38 6.19-2.96.69-9.93.89-13.07.37zm12.77-7.577c8.09-2.245 14.394-7.556 17.975-15.14 1.68-3.56 2.277-6.157 2.418-10.528.09-2.973.016-4.133-.398-6.15-1.35-6.482-4.8-12.132-9.84-16.13-2.49-1.96-7.044-4.303-9.85-5.043-9.515-2.52-19.478-.057-26.57 6.57-4.725 4.426-7.93 10.964-8.466 17.275-.73 8.49 2.15 16.3 8.11 22.08 4.14 4.02 8.94 6.55 14.32 7.57 3.15.6 9.19.35 12.27-.51zm-453.278 7.29c-9.778-1.936-16.91-8.402-16.91-15.315v-1.537h6.993l.162 1.18c.537 3.895 4.392 7.107 10.256 8.54 3.237.788 8.482.788 11.508 0 4.86-1.27 9.37-4.45 10.09-7.11.83-3.073-.94-6.4-5.04-9.466-2.89-2.163-5.41-3.61-13.64-7.824-9.3-4.765-11.28-6.058-14.82-9.612-3.95-3.96-5.48-7.13-5.48-11.29 0-5.58 3.42-10.16 10.08-13.51 4.14-2.08 8.08-2.8 14.32-2.61 3.81.12 4.93.25 7.02.83 6.5 1.8 11.36 5.36 13.66 10.01.94 1.88 1.11 2.5 1.22 4.29l.12 2.09h-7.07l-.17-1.06c-.58-3.61-3.75-6.5-9.05-8.24-2.08-.68-2.51-.73-6.8-.74-3.99-.01-4.83.07-6.61.58-5.98 1.74-9.89 5.41-9.55 8.97.18 1.84 1.16 3.6 3.07 5.51 2.91 2.91 7.59 5.74 18.99 11.44 5.56 2.78 8.61 4.85 11.64 7.9 4.16 4.19 5.67 7.5 5.44 11.97-.11 2.235-.23 2.674-1.2 4.64-2.56 5.18-8.47 9.09-15.8 10.48-2.63.506-9.8.498-12.33-.01zm64.673-.09c-12.71-2.765-22.235-11.15-26.226-23.08-1.28-3.815-1.72-6.686-1.72-11.2 0-4.538.47-7.702 1.7-11.435 3.91-11.84 12.96-20.08 24.85-22.61 2.34-.495 9.2-.42 11.77.14 10.17 2.204 17.47 7.79 21.89 16.745.7 1.43 1.51 3.383 1.79 4.327.71 2.4 1.6 6.815 1.42 7.1-.08.138-11.75.235-27.99.235h-27.85l-.2.724c-.11.4-.19 2.61-.17 4.91.03 4.74.57 7.42 2.27 11.35 4.26 9.85 13.98 16.25 24.68 16.26 9.21.02 16.64-3.67 22.41-11.12 1-1.29 1.94-2.31 2.07-2.27.135.04 1.417.96 2.85 2.04 1.68 1.28 2.535 2.08 2.413 2.29-.7 1.15-3.78 4.89-5.13 6.25-4.368 4.38-10.75 7.8-17.324 9.28-1.15.26-3.56.46-6.54.52-3.923.09-5.09.03-6.99-.39zM269.11 56.65c-4.133-8.166-12.052-12.997-21.34-13.013-7.062-.008-12.093 2.008-17.18 6.913-1.92 1.846-2.988 3.253-4.35 5.717l-.977 1.765h44.54zm18.216 14.32V36.286l3.468.073 3.464.07.066 6.63.065 6.62 1.87-1.74c1.03-.95 2.9-2.43 4.16-3.27 7.56-5.06 14.99-7.56 25.28-8.52l1.89-.17v7.08l-1.11.15c-.61.08-2.17.28-3.48.42-11.21 1.3-21.24 7.06-27.46 15.79l-1.2 1.67v16.74c0 9.2-.08 19.23-.17 22.27l-.18 5.533h-6.71V70.97zm180.21 34.508c-.095-.09-.173-15.696-.173-34.67v-34.5h7.328l.01 4.913.01 4.92.66-.83c1.8-2.27 7.9-5.92 12.11-7.24 6.6-2.06 14.2-2.05 20.82.02 6.25 1.96 11.91 6.11 14.99 10.97.69 1.07 1.3 1.95 1.38 1.94.09 0 .57-.72 1.07-1.61 1.14-1.98 3.94-5.01 6.24-6.75 3.53-2.65 8.57-4.79 13.37-5.65 4.83-.87 11.75-.41 16.47 1.08 2.4.76 6.64 2.9 8.81 4.45 4.13 2.94 7.88 8.16 9.51 13.22 1.41 4.37 1.62 8.4 1.62 30.78v19.19h-7.02l-.13-20.07c-.14-23.1-.28-25.24-1.93-29.24-2.36-5.72-7.81-10.15-14.85-12.06-2.44-.66-8.68-.79-11.41-.25-2.69.55-6.22 1.85-8.25 3.04-1.97 1.16-5.78 4.95-6.8 6.78-1.2 2.15-2.11 4.94-2.46 7.52-.17 1.27-.37 5.72-.46 9.89l-.16 7.59-3.592.07-3.593.073V74.7c0-5.7-.44-12.866-.937-15.16-.78-3.683-2.31-6.44-5.14-9.263-2.85-2.85-5.85-4.543-10.32-5.844-1.8-.52-2.63-.6-6.76-.59-5.53.01-6.97.3-10.99 2.21-4.727 2.244-7.76 5.123-9.786 9.28-2.22 4.56-2.46 7.67-2.494 31.88l-.02 18.52h-3.42c-1.88 0-3.5-.076-3.597-.17zm-112.053 2.262c-8.223-1.367-15.815-5.543-20.958-11.53-4.147-4.822-6.63-9.835-8-16.146-.74-3.414-.672-10.967.132-14.593 2.354-10.6 8.78-19.18 17.703-23.62 5.09-2.53 9.553-3.48 15.28-3.25 9.73.4 18.32 4.85 23.81 12.32 3.28 4.47 4.62 7.84 6.18 15.54l.173.85-28.066.07-28.068.07-.24.78c-.37 1.2-.33 7.35.05 9.55 2.15 12.34 11.46 21.31 23.93 23.05 4.19.59 10.37-.4 14.67-2.36 4.08-1.85 7.95-5.07 10.94-9.11l1.59-2.15.8.6c.44.33 1.71 1.29 2.83 2.12 1.11.83 2.02 1.57 2.02 1.62 0 .41-4.78 6.11-6.21 7.41-4.61 4.19-11.26 7.48-17.28 8.52-3.308.57-8.71.7-11.33.27zm24.053-49.575c-6.596-12.378-22.972-16.325-34.816-8.39-3.302 2.213-7.36 7-8.487 10.004-.162.43 1 .45 22.12.45h22.293zm47.908 49.797c-12.52-1.59-23.33-9.556-28.105-20.713-2.37-5.52-3.29-11.26-2.77-17.24 1.13-13.14 8.73-24.13 20.08-29.04 8.18-3.54 18.43-3.2 26.49.87 3.2 1.62 4.95 2.9 7.75 5.68 4.82 4.79 7.28 9.46 8.84 16.85l.62 2.91h-56.14l-.18.58c-.46 1.48-.47 6.96-.03 9.63 1.84 11.07 9.11 19.33 19.63 22.35 3.66 1.05 5.95 1.27 9.64.94 3.81-.34 6.27-1 9.55-2.54 4.28-2.02 7.29-4.47 10.26-8.36 1.04-1.37 2.01-2.48 2.14-2.48.41 0 5.4 3.75 5.42 4.06.01.52-3.61 4.96-5.66 6.93-4.79 4.6-10.86 7.71-17.55 8.98-2.18.41-8.35.73-10.02.52zm23.552-47.865c0-.366-1.496-3.04-2.485-4.432-1.51-2.13-4.92-5.343-6.92-6.514-4.11-2.4-7.78-3.38-12.7-3.38-3.84.01-6.08.41-9.15 1.64-5.14 2.06-10.12 6.68-12.67 11.74l-.56 1.12h22.25c12.24 0 22.25-.05 22.25-.14z"/>
</svg>
